HIERARCHY
ROOT Hips
{
	OFFSET 0.000000 0.000000 0.000000
	CHANNELS 6 Xposition Yposition Zposition Zrotation Yrotation Xrotation 
	JOINT LHipJoint
	{
		OFFSET 0.000000 0.000000 0.000000
		CHANNELS 3 Zrotation Yrotation Xrotation
		JOINT LeftUpLeg
		{
			OFFSET 1.363060 -1.794630 0.839290
			CHANNELS 3 Zrotation Yrotation Xrotation
			JOINT LeftLeg
			{
				OFFSET 2.448110 -6.726130 0.000000
				CHANNELS 3 Zrotation Yrotation Xrotation
				JOINT LeftFoot
				{
					OFFSET 2.562200 -7.039590 0.000000
					CHANNELS 3 Zrotation Yrotation Xrotation
					JOINT LeftToeBase
					{
						OFFSET 0.157640 -0.433110 2.322550
						CHANNELS 3 Zrotation Yrotation Xrotation
						End Site
						{
							OFFSET 0.000000 0.000000 0.000000
						}
					}
				}
			}
		}
	}
	JOINT RHipJoint
	{
		OFFSET 0.000000 0.000000 0.000000
		CHANNELS 3 Zrotation Yrotation Xrotation
		JOINT RightUpLeg
		{
			OFFSET -1.305520 -1.794630 0.839290
			CHANNELS 3 Zrotation Yrotation Xrotation
			JOINT RightLeg
			{
				OFFSET -2.542530 -6.985550 0.000000
				CHANNELS 3 Zrotation Yrotation Xrotation
				JOINT RightFoot
				{
					OFFSET -2.568260 -7.056230 0.000000
					CHANNELS 3 Zrotation Yrotation Xrotation
					JOINT RightToeBase
					{
						OFFSET -0.164730 -0.452590 2.363150
						CHANNELS 3 Zrotation Yrotation Xrotation
						End Site
						{
							OFFSET 0.000000 0.000000 0.000000
						}
					}
				}
			}
		}
	}
}
MOTION
Frames: 28
Frame Time: 0.008333
2.203321 16.859332 2.419313 15.991771 -41.180092 13.788889 -7.586287 -0.412223 7.666069 -1.612980 -25.846678 -43.089453 -2.032322 -0.625426 10.881135 0.263508 5.196305 13.731254 2.643900 0.000000 -64.022700 13.427165 0.907833 -5.569917 -12.145984 -41.668744 -6.839579 1.841805 0.505990 -6.355685 -2.949193 -22.492317 17.947577 -10.902800 -0.000000 -73.728401
2.205640 16.846063 2.436338 15.712901 -41.409382 14.101467 -7.564074 -0.388117 7.747219 -1.222972 -25.986486 -43.434009 -1.943258 -0.629646 11.204936 0.344571 5.573914 13.148879 2.731100 -0.000000 -63.959700 13.400095 0.880526 -5.526767 -11.839595 -41.404664 -7.045141 1.858479 0.518858 -6.255872 -2.898719 -22.482812 17.718788 -10.877600 0.000000 -73.751400
2.210291 16.833146 2.455172 15.406625 -41.629671 14.443925 -7.548201 -0.362146 7.832582 -0.777653 -26.161478 -43.798269 -1.845027 -0.632330 11.532109 0.430397 5.954554 12.560882 2.810700 0.000000 -63.879000 13.365251 0.847829 -5.487231 -11.504232 -41.093910 -7.214926 1.867063 0.541199 -6.223136 -2.887636 -22.559470 17.542075 -10.888100 0.000000 -73.736100
2.216940 16.820712 2.474874 15.085905 -41.842514 14.807141 -7.537784 -0.336867 7.914966 -0.296939 -26.355063 -44.178169 -1.741442 -0.633156 11.864707 0.517589 6.323935 11.981788 2.879300 0.000000 -63.791900 13.326241 0.812411 -5.450047 -11.150134 -40.738921 -7.351996 1.866021 0.571903 -6.262899 -2.918612 -22.718286 17.420472 -10.930300 0.000000 -73.679000
2.224786 16.808923 2.494718 14.765594 -42.052078 15.180039 -7.531122 -0.312661 7.991256 0.199525 -26.553149 -44.566131 -1.636411 -0.632493 12.197719 0.603606 6.675162 11.426195 2.937101 -0.000000 -63.706800 13.287000 0.776104 -5.413644 -10.787643 -40.353535 -7.459197 1.856226 0.610514 -6.383557 -2.994509 -22.941926 17.362254 -10.993400 -0.000000 -73.607200
2.233368 16.798089 2.514167 14.451347 -42.263720 15.555775 -7.528011 -0.289872 8.058958 0.694976 -26.739867 -44.956202 -1.532807 -0.630458 12.526930 0.686274 7.001798 10.905694 2.984400 -0.000000 -63.630700 13.249138 0.740126 -5.375116 -10.420796 -39.942084 -7.545600 1.837883 0.656039 -6.582363 -3.114807 -23.223653 17.369711 -11.075299 -0.000000 -73.517200
2.241971 16.788360 2.532768 14.156764 -42.481926 15.921845 -7.527246 -0.267997 8.117655 1.171545 -26.907656 -45.337595 -1.433593 -0.627729 12.842711 0.764720 7.306090 10.429867 3.024900 0.000000 -63.566999 13.214777 0.706533 -5.336591 -10.062606 -39.533657 -7.609681 1.815068 0.708398 -6.869630 -3.281162 -23.528564 17.454577 -11.155800 -0.000000 -73.458399
2.250330 16.779999 2.550437 13.880022 -42.709228 16.280073 -7.530886 -0.248340 8.164690 1.618049 -27.040207 -45.708029 -1.340274 -0.624270 13.144582 0.837251 7.580892 10.001886 3.057701 0.000000 -63.518500 13.179498 0.680029 -5.292690 -9.707493 -39.110115 -7.705083 1.787106 0.758956 -7.134439 -3.468996 -23.870778 17.551560 -11.249400 0.000000 -73.374300
2.258220 16.773050 2.567198 13.620485 -42.923560 16.630997 -7.538430 -0.237530 8.197734 2.025500 -27.135494 -46.061035 -1.255648 -0.621966 13.429668 0.902090 7.825094 9.623834 3.084800 -0.000000 -63.484800 13.122628 0.696154 -5.237324 -9.364302 -38.661953 -8.114933 1.764130 0.757057 -6.721773 -3.536188 -24.225261 17.257304 -11.348700 0.000001 -73.275800
2.265468 16.767453 2.582636 13.394414 -43.147508 16.949822 -7.548858 -0.228484 8.219207 2.377028 -27.197053 -46.376427 -1.180151 -0.619975 13.685849 0.961803 8.052098 9.293438 3.110701 0.000000 -63.457400 13.064049 0.726119 -5.188464 -9.053196 -38.259815 -8.567586 1.745876 0.747506 -6.230882 -3.602705 -24.546493 16.948246 -11.421300 0.000000 -73.277700
2.272508 16.763233 2.597441 13.182303 -43.385094 17.254917 -7.565895 -0.220056 8.229936 2.681541 -27.211410 -46.666040 -1.111869 -0.617323 13.920523 1.015635 8.251622 9.001583 3.131200 0.000000 -63.437901 13.001924 0.761698 -5.140305 -8.749398 -37.869380 -9.049100 1.728260 0.734773 -5.708413 -3.671756 -24.872876 16.655173 -11.499799 0.000000 -73.257700
2.279573 16.760159 2.611683 12.985498 -43.632247 17.537731 -7.587894 -0.211731 8.231347 2.936052 -27.187162 -46.919573 -1.051185 -0.614311 14.130773 1.064408 8.429414 8.741419 3.147999 -0.000000 -63.418400 12.936857 0.803651 -5.098533 -8.464530 -37.516639 -9.550241 1.715388 0.717740 -5.148047 -3.738331 -25.174606 16.376581 -11.567500 -0.000000 -73.268900
2.287135 16.758098 2.625652 12.794173 -43.886357 17.801635 -7.615153 -0.203170 8.224698 3.147002 -27.126376 -47.136679 -0.997082 -0.610588 14.320794 1.108219 8.583431 8.503189 3.159200 -0.000000 -63.395100 12.868848 0.847947 -5.062788 -8.193879 -37.194318 -10.055463 1.706455 0.697768 -4.567006 -3.802049 -25.457449 16.120697 -11.631100 -0.000001 -73.266800
2.295618 16.756827 2.639800 12.597909 -44.143230 18.052128 -7.647700 -0.194308 8.211956 3.324282 -27.033548 -47.319871 -0.948338 -0.605934 14.494529 1.147097 8.711508 8.278359 3.163000 0.000001 -63.364800 12.798263 0.890311 -5.031718 -7.932410 -36.892627 -10.548802 1.699987 0.676459 -3.986140 -3.863098 -25.730967 15.897979 -11.700100 -0.000001 -73.218600
2.305357 16.756125 2.654091 12.400883 -44.393959 18.277619 -7.682342 -0.185602 8.196047 3.470357 -26.926988 -47.461145 -0.905020 -0.601006 14.650453 1.182253 8.822761 8.061338 3.161700 0.000000 -63.319800 12.726479 0.933051 -5.011248 -7.695036 -36.645317 -11.029553 1.700880 0.650678 -3.382107 -3.915922 -25.956236 15.697542 -11.749099 -0.000000 -73.236800
2.316553 16.755816 2.668946 12.195597 -44.634860 18.486352 -7.719445 -0.177379 8.178876 3.598219 -26.811558 -47.569014 -0.865581 -0.595609 14.793778 1.213693 8.914689 7.845884 3.153700 0.000000 -63.259500 12.653822 0.972083 -4.997847 -7.473791 -36.433138 -11.485691 1.706037 0.622319 -2.777625 -3.962412 -26.152141 15.528680 -11.792600 0.000000 -73.271801
2.329156 16.755704 2.684536 11.983390 -44.862105 18.679599 -7.758240 -0.169905 8.162302 3.716005 -26.696740 -47.647927 -0.829142 -0.589880 14.926560 1.241871 8.989412 7.628920 3.139300 -0.000000 -63.182700 12.580999 1.006669 -4.990441 -7.269705 -36.251762 -11.912260 1.714431 0.591778 -2.179771 -4.002590 -26.320384 15.392135 -11.832000 -0.000001 -73.317000
2.342913 16.755605 2.700869 11.771939 -45.072882 18.854186 -7.796895 -0.163005 8.148753 3.828125 -26.594507 -47.702424 -0.795254 -0.584244 15.049078 1.267796 9.053331 7.409230 3.120299 -0.000000 -63.087900 12.508990 1.038565 -4.989571 -7.089132 -36.108778 -12.312142 1.726887 0.558276 -1.582050 -4.035026 -26.449675 15.281488 -11.859000 -0.000001 -73.395900
2.357683 16.755463 2.718011 11.558071 -45.268771 19.016696 -7.836271 -0.156477 8.138274 3.941052 -26.504408 -47.741668 -0.762816 -0.578150 15.166526 1.291325 9.103484 7.185786 3.095899 -0.000000 -62.979000 12.437997 1.065364 -4.990595 -6.925583 -35.977110 -12.674173 1.738682 0.525018 -1.013717 -4.063248 -26.567938 15.205660 -11.892900 0.000000 -73.451501
2.372924 16.755124 2.735833 11.352647 -45.450145 19.162759 -7.874562 -0.149500 8.132683 4.053975 -26.434037 -47.770112 -0.731869 -0.571891 15.279454 1.313336 9.145837 6.959998 3.068200 -0.000000 -62.857200 12.369222 1.089548 -4.993254 -6.785632 -35.862704 -13.003720 1.750324 0.491687 -0.468736 -4.086393 -26.666243 15.156780 -11.926101 -0.000000 -73.515299
2.388214 16.754510 2.754130 11.159971 -45.619378 19.292313 -7.911170 -0.141348 8.132207 4.164886 -26.383327 -47.793292 -0.702415 -0.565265 15.391023 1.334030 9.181240 6.733008 3.037901 0.000000 -62.726400 12.303795 1.111360 -4.994694 -6.670370 -35.754371 -13.297047 1.759391 0.460016 0.039813 -4.106241 -26.756493 15.135534 -11.965700 -0.000000 -73.575700
2.403052 16.753489 2.772474 10.997077 -45.777128 19.392616 -7.942244 -0.130783 8.139582 4.264723 -26.362729 -47.811390 -0.675529 -0.559251 15.496792 1.355106 9.223003 6.509896 3.010100 0.000000 -62.583100 12.243752 1.136376 -4.996872 -6.593986 -35.678809 -13.573308 1.769991 0.426935 0.543999 -4.118904 -26.803204 15.119587 -11.983900 0.000000 -73.662600
2.417089 16.752108 2.790730 10.857695 -45.927988 19.472764 -7.970142 -0.117569 8.151904 4.352484 -26.357654 -47.830445 -0.650897 -0.552756 15.604644 1.375452 9.261969 6.290276 2.982000 0.000000 -62.436900 12.189429 1.160356 -4.993062 -6.544875 -35.595407 -13.813093 1.774839 0.397656 0.998941 -4.130894 -26.856379 15.128010 -12.015600 0.000000 -73.754400
2.430128 16.750344 2.808556 10.746587 -46.073494 19.528429 -7.993720 -0.101231 8.168779 4.420796 -26.366411 -47.849781 -0.629312 -0.545908 15.714159 1.395342 9.300858 6.076528 2.954900 0.000000 -62.289401 12.141915 1.184687 -4.983006 -6.526628 -35.507318 -14.019037 1.774437 0.372057 1.408668 -4.141633 -26.908474 15.150915 -12.053201 0.000000 -73.838600
2.441883 16.748151 2.825535 10.673029 -46.215558 19.552583 -8.011167 -0.081299 8.190348 4.461104 -26.389576 -47.867076 -0.611773 -0.539271 15.822331 1.415561 9.346232 5.871749 2.931401 -0.000000 -62.139100 12.102442 1.212218 -4.967738 -6.546103 -35.427825 -14.201369 1.770953 0.348409 1.791177 -4.149283 -26.941297 15.175050 -12.081300 0.000001 -73.935300
2.452581 16.745615 2.841442 10.630529 -46.356715 19.547751 -8.023655 -0.058283 8.213922 4.470295 -26.418224 -47.880720 -0.598432 -0.532406 15.930460 1.435551 9.394321 5.676432 2.910400 -0.000000 -61.989900 12.070676 1.241570 -4.946348 -6.598486 -35.345070 -14.353195 1.762685 0.328157 2.133898 -4.155496 -26.966908 15.202030 -12.107499 -0.000000 -74.028700
2.462279 16.742791 2.856031 10.618204 -46.498920 19.514678 -8.031696 -0.032570 8.237466 4.445803 -26.446435 -47.887682 -0.589591 -0.525302 16.037480 1.455116 9.444167 5.491075 2.891700 0.000000 -61.843200 12.046600 1.272500 -4.918935 -6.681775 -35.255161 -14.473052 1.749256 0.311612 2.434572 -4.160861 -26.988349 15.229913 -12.132500 -0.000001 -74.116800
2.471229 16.739728 2.869191 10.632127 -46.644583 19.455697 -8.036290 -0.004843 8.258983 4.387621 -26.468442 -47.885644 -0.585256 -0.517887 16.142543 1.473917 9.493616 5.315219 2.874600 -0.000000 -61.700100 12.029384 1.304649 -4.886492 -6.791997 -35.156556 -14.561716 1.730932 0.298682 2.694125 -4.165665 -27.007305 15.258196 -12.156899 0.000000 -74.215300
